<?xml version="1.0" standalone="no"?>
<!DOCTYPE svg PUBLIC "-//W3C//DTD SVG 20010904//EN"
 "http://www.w3.org/TR/2001/REC-SVG-20010904/DTD/svg10.dtd">
<svg version="1.0" xmlns="http://www.w3.org/2000/svg"
 width="7462.000000pt" height="2709.000000pt" viewBox="0 0 7462.000000 2709.000000"
 preserveAspectRatio="xMidYMid meet">

<g transform="translate(0.000000,2709.000000) scale(0.100000,-0.100000)"
fill="#000000" stroke="none">
<path d="M0 22023 c0 -3143 4 -5125 10 -5218 21 -332 76 -621 176 -928 414
-1268 1478 -2215 2784 -2475 354 -71 103 -65 3105 -71 l2710 -6 5 -2715 c6
-2982 1 -2741 65 -3076 169 -887 673 -1694 1402 -2246 565 -428 1245 -683
1968 -737 95 -8 1771 -11 5233 -11 l5092 0 -3 5218 c-3 5716 2 5248 -57 5582
-193 1086 -890 2036 -1872 2549 -394 207 -762 320 -1268 393 -65 9 -748 13
-2837 15 l-2753 3 -3 2748 -3 2747 -22 151 c-83 575 -264 1059 -568 1521 -542
823 -1405 1391 -2374 1563 -330 58 114 53 -5582 57 l-5208 3 0 -5067z"/>
<path d="M43920 13125 l0 -1045 -480 0 -480 0 0 -795 0 -795 480 0 479 0 4
-1877 c3 -1674 5 -1893 20 -2013 48 -388 115 -635 242 -895 91 -188 171 -301
305 -435 136 -136 257 -221 460 -323 389 -196 831 -292 1455 -317 253 -10 699
-1 946 20 304 26 678 82 948 145 85 19 156 35 158 35 2 0 3 362 3 805 l0 805
-97 0 c-89 0 -104 -3 -178 -35 -97 -41 -349 -115 -525 -153 -113 -24 -144 -26
-330 -26 -397 1 -622 73 -803 258 -78 80 -136 181 -181 316 -75 224 -69 81
-73 1983 l-4 1707 1096 0 1095 0 0 795 0 795 -1095 0 -1095 0 -2 1043 -3 1042
-1172 3 -1173 2 0 -1045z"/>
<path d="M29950 12299 c-1429 -66 -2497 -625 -3133 -1639 -415 -662 -616
-1585 -557 -2560 65 -1065 397 -1877 1025 -2505 250 -251 509 -439 822 -598
581 -296 1205 -436 2013 -453 1221 -27 2191 263 2903 866 110 93 316 302 414
420 323 388 569 896 697 1440 152 646 166 1455 36 2135 -192 1002 -727 1809
-1533 2314 -686 429 -1615 630 -2687 580z m676 -1663 c297 -63 508 -175 684
-363 271 -290 430 -713 495 -1313 35 -323 30 -906 -11 -1235 -79 -645 -355
-1143 -760 -1375 -218 -125 -581 -194 -894 -170 -262 19 -420 59 -605 150
-286 141 -486 361 -627 688 -165 385 -239 890 -225 1527 13 559 77 920 224
1264 107 250 235 428 419 580 167 139 326 210 556 251 161 28 170 28 408 25
185 -3 232 -7 336 -29z"/>
<path d="M52545 12284 c-600 -26 -929 -60 -1545 -159 -454 -73 -1008 -180
-1042 -201 -5 -3 -8 -401 -8 -885 l0 -879 108 0 c106 0 110 1 282 61 382 133
866 283 1092 339 167 41 383 80 563 102 139 16 668 16 855 -1 611 -54 1034
-195 1228 -409 133 -148 205 -335 218 -567 l7 -112 -114 -7 c-964 -59 -1963
-169 -2469 -272 -451 -92 -912 -247 -1210 -406 -596 -319 -973 -766 -1114
-1325 -125 -492 -108 -1051 45 -1489 235 -676 866 -1228 1619 -1419 410 -104
962 -109 1465 -14 393 74 753 207 1039 386 133 83 421 288 655 464 l66 51 3
-386 2 -386 1160 0 1160 0 -3 2643 c-3 2458 -4 2650 -20 2757 -86 560 -256
928 -582 1256 -504 506 -1286 767 -2535 844 -174 10 -788 20 -925 14z m1745
-4846 l-1 -763 -52 -41 c-201 -161 -450 -293 -712 -379 -261 -86 -475 -111
-803 -95 -232 12 -362 30 -471 66 -199 66 -413 233 -484 378 -51 104 -61 170
-62 411 0 183 3 232 18 290 97 367 413 587 1013 704 251 49 1143 159 1537 190
16 1 17 -41 17 -761z"/>
<path d="M39285 12269 c-585 -37 -1189 -165 -1655 -351 -832 -332 -1447 -886
-1832 -1653 -187 -372 -299 -762 -359 -1255 -26 -213 -37 -771 -20 -1000 70
-917 369 -1651 908 -2229 442 -475 1093 -839 1838 -1025 806 -202 1795 -241
2575 -100 448 81 1011 259 1423 449 l77 36 -2 997 -3 997 -163 3 -162 2 -153
-136 c-380 -340 -635 -495 -1031 -623 -151 -50 -294 -83 -461 -108 -97 -14
-181 -18 -445 -17 -307 0 -333 2 -470 26 -870 158 -1364 704 -1495 1653 -23
162 -31 574 -16 758 73 863 451 1476 1080 1752 331 146 772 196 1235 139 406
-50 854 -225 1243 -485 79 -54 219 -164 390 -306 l111 -93 171 0 171 0 0 996
0 995 -105 50 c-436 204 -1049 392 -1525 468 -393 63 -908 86 -1325 60z"/>
<path d="M63345 12273 c-287 -18 -609 -87 -885 -190 -120 -44 -397 -180 -560
-273 -168 -97 -463 -292 -638 -423 -78 -59 -144 -107 -147 -107 -3 0 -5 180
-5 400 l0 400 -1170 0 -1170 0 0 -3655 0 -3655 1170 0 1170 0 0 2590 0 2589
73 42 c315 185 643 312 937 364 302 53 713 33 957 -47 282 -93 463 -282 548
-574 52 -177 90 -469 115 -874 6 -101 10 -928 10 -2127 l0 -1963 1180 0 1180
0 0 2463 c0 1525 -4 2519 -10 2612 -53 789 -275 1362 -691 1775 -449 446
-1065 666 -1843 658 -94 -1 -193 -3 -221 -5z"/>
<path d="M71115 12270 c-1178 -71 -2050 -393 -2664 -985 -449 -433 -658 -937
-638 -1540 33 -986 574 -1645 1646 -2005 355 -119 725 -202 1316 -295 571 -90
1014 -201 1207 -302 101 -53 152 -102 195 -191 l38 -76 0 -130 c0 -127 -1
-133 -32 -199 -101 -214 -353 -338 -798 -392 -286 -35 -805 -30 -1120 11 -433
56 -896 189 -1380 397 -268 115 -426 201 -667 363 l-230 154 -104 0 -104 0 2
-967 3 -966 105 -44 c447 -187 1149 -374 1699 -453 418 -59 733 -80 1226 -80
666 0 1156 55 1655 186 821 216 1477 646 1835 1204 70 109 169 318 210 444
125 383 138 852 34 1254 -133 515 -474 926 -999 1200 -354 186 -792 313 -1482
432 -1330 230 -1677 339 -1800 566 -56 104 -75 272 -43 381 116 391 1040 586
2007 423 565 -95 1218 -347 1732 -669 l129 -81 98 0 99 0 -2 926 -3 926 -95
39 c-236 96 -610 205 -1010 294 -387 86 -685 132 -1070 165 -163 14 -816 21
-995 10z"/>
</g>
</svg>
